<svg width="300" height="100" viewBox="0 0 821 186" fill="none" xmlns="http://www.w3.org/2000/svg">
<path d="M26.6697 8.10779C20.3697 12.8078 15.0697 17.0078 14.8697 17.5078C14.6697 18.0078 17.2697 25.1078 20.6697 33.4078C26.0697 46.7078 26.6697 48.9078 25.8697 51.9078C24.9697 55.1078 25.3697 56.1078 31.8697 67.0078C35.6697 73.4078 38.9697 78.5078 39.1697 78.3078C39.2697 78.1078 42.2697 73.3078 45.6697 67.5078C51.2697 58.2078 51.9697 56.5078 51.8697 52.2078C51.6697 48.5078 52.9697 44.4078 57.7697 32.5078C61.1697 24.2078 63.7697 17.3078 63.5697 17.1078C60.8697 14.9078 40.2697 0.307793 39.3697 0.00779275C38.6697 -0.192207 32.9697 3.50779 26.6697 8.10779Z" fill="black"/>
<path d="M6.26964 26.5078C4.26964 31.7078 4.26964 34.0078 6.56964 39.1078C8.16964 42.7078 14.4696 49.0078 15.4696 48.0078C15.7696 47.7078 8.76964 23.4078 8.16964 22.7078C8.06964 22.5078 7.16964 24.2078 6.26964 26.5078Z" fill="black"/>
<path d="M68.3697 29.2079C67.4697 32.4079 65.8697 38.0079 64.7697 41.7079C62.9697 47.9079 62.9697 48.4079 64.4697 47.6079C66.6697 46.4079 71.1697 41.6079 72.5697 38.8079C74.6697 34.8079 73.2697 23.5079 70.6697 23.5079C70.2697 23.5079 69.2697 26.1079 68.3697 29.2079Z" fill="black"/>
<path d="M58.3697 39.1078C55.4697 45.0078 54.6697 47.7078 54.6697 52.3078C54.5697 60.4078 50.8697 67.5078 39.5697 80.8078C38.4697 82.1078 26.6697 65.9078 24.4697 60.1078C23.1697 56.7078 22.6697 53.7078 23.0697 51.0078C23.4697 47.7078 22.9697 45.7078 19.6697 39.5078C15.5697 31.5078 14.7697 32.3078 17.0697 42.0078C18.1697 46.3078 18.0697 48.0078 16.4697 53.8078C13.8697 63.3078 9.46968 72.7078 4.66968 78.7078C2.46968 81.5078 0.369675 84.8078 0.0696755 86.0078C-0.230325 87.2078 0.469675 91.3078 1.56968 95.1078C2.66968 98.9078 5.86968 110.808 8.66968 121.508C11.4697 132.208 15.5697 145.908 17.7697 152.008C20.6697 159.908 21.8697 164.808 22.0697 169.508C22.2697 173.608 23.0697 177.708 24.4697 180.508L26.5697 185.008L26.6697 180.508C26.7697 178.008 27.7697 158.808 28.9697 137.708C30.2697 116.608 31.0697 99.2078 30.7697 98.9078C30.5697 98.7078 27.0697 98.5078 23.0697 98.5078C15.9697 98.5078 15.7697 98.4078 13.5697 95.2078C12.3697 93.5078 10.4697 91.3078 9.26968 90.3078C7.66968 89.0078 10.0697 89.3078 21.1697 91.8078L34.9697 95.0078L34.7697 102.308C34.5697 108.108 34.8697 110.108 36.2697 111.608C40.5697 116.308 43.1697 112.708 42.7697 102.508L42.5697 94.8078L48.3697 93.6078C51.5697 93.0078 57.9697 91.6078 62.6697 90.5078L71.1697 88.6078L68.3697 90.7078C66.8697 91.8078 64.9697 94.0078 64.0697 95.6078C62.6697 98.4078 62.4697 98.5078 54.4697 98.5078H46.3697L47.0697 107.208C47.3697 112.108 48.3697 129.008 49.1697 145.008C50.0697 160.908 50.9697 176.508 51.3697 179.508L51.9697 185.008L54.3697 178.008C55.8697 173.508 56.5697 169.908 56.1697 167.908C55.7697 165.708 56.6697 161.708 59.1697 154.908C64.7697 139.508 77.6697 91.9078 77.6697 86.7078C77.6697 85.2078 76.0697 82.2078 73.7697 79.5078C68.7697 73.6078 65.5697 67.1078 62.1697 56.3078L59.4697 47.7078L61.1697 40.0078C62.1697 35.8078 62.6697 32.2078 62.4697 32.0078C62.2697 31.8078 60.3697 34.9078 58.3697 39.1078Z" fill="black"/>
<path d="M591.67 97.0078V122.508H598.17H604.67V97.0078V71.5078H598.17H591.67V97.0078Z" fill="black"/>
<path d="M116.37 73.9078C111.37 77.7078 111.57 95.8078 116.67 98.5078C117.77 99.1078 126.47 99.5078 137.07 99.5078H155.67V107.008V114.508H137.17H118.67V111.008C118.67 107.308 117.77 106.808 112.87 108.108C110.87 108.708 110.67 109.208 111.27 112.408C112.77 121.508 112.87 121.508 137.27 121.508C156.27 121.508 159.97 121.008 161.87 118.108C162.97 116.508 162.87 98.7078 161.67 96.5078C159.97 93.3078 154.97 92.5078 137.57 92.5078H120.67V85.5078V78.5078L137.97 78.7078L155.17 79.0078L155.47 82.6078L155.77 86.3078L159.37 85.2078C162.77 84.1078 162.87 84.0078 162.37 80.1078C161.37 72.8078 160.27 72.5078 137.77 72.5078C122.87 72.6078 117.77 72.9078 116.37 73.9078Z" fill="black"/>
<path d="M188.67 97.0078V121.508H192.67H196.67V112.108V102.608L215.67 102.308C239.17 101.908 238.07 102.608 238.47 88.0078C238.87 78.0078 238.77 77.5078 236.27 75.0078L233.77 72.5078H211.17H188.67V97.0078ZM228.67 80.0078C230.37 82.1078 231.07 89.5078 229.77 92.7078L228.67 95.5078H212.67H196.67V87.0078V78.5078H212.07C224.47 78.5078 227.67 78.8078 228.67 80.0078Z" fill="black"/>
<path d="M265.27 76.7078C263.97 79.1078 257.87 90.1078 251.87 101.208L240.87 121.508H244.97C249.07 121.508 249.27 121.308 252.17 115.708L255.17 110.008L271.87 109.708L288.57 109.508L291.67 115.508L294.67 121.508H299.27C301.77 121.508 303.67 121.108 303.47 120.608C303.37 120.108 297.37 109.108 290.17 96.1078L277.17 72.6078L272.47 72.5078C267.97 72.5078 267.67 72.7078 265.27 76.7078ZM280.87 94.9078C282.97 99.2078 284.57 102.908 284.37 103.108C284.17 103.408 278.27 103.408 271.47 103.308L258.97 103.008L265.47 90.7078L271.97 78.3078L274.37 82.7078C275.77 85.1078 278.67 90.5078 280.87 94.9078Z" fill="black"/>
<path d="M320.67 97.0078V121.508H324.67H328.67V112.008V102.508H335.87H342.97L352.77 112.008L362.57 121.508H368.57C371.97 121.508 374.67 121.308 374.67 121.208C374.67 121.008 369.97 116.808 364.17 111.908L353.57 103.008L360.27 102.408C369.77 101.608 370.67 100.208 370.67 87.3078C370.67 78.1078 370.47 77.2078 368.17 75.0078L365.77 72.5078H343.17H320.67V97.0078ZM361.07 80.7078C363.07 83.5078 363.17 91.5078 361.27 94.1078C359.97 95.8078 358.27 96.0078 344.27 96.3078L328.67 96.6078V87.6078V78.5078H344.07C358.97 78.5078 359.57 78.6078 361.07 80.7078Z" fill="black"/>
<path d="M381.67 75.5078V78.4078L392.97 78.7078L404.17 79.0078L404.47 100.208L404.67 121.508H408.67H412.67V100.008V78.5078H424.17H435.67V75.5078V72.5078H408.67H381.67V75.5078Z" fill="black"/>
<path d="M450.47 88.7078C445.67 97.7078 439.67 108.708 437.17 113.208L432.67 121.508H436.97C441.27 121.508 441.27 121.508 444.17 115.508L447.07 109.508H463.87H480.67L483.67 115.508L486.67 121.508H491.27H495.87L491.37 113.208C488.87 108.708 482.77 97.8078 477.87 89.0078L468.97 73.0078L464.07 72.7078L459.17 72.5078L450.47 88.7078ZM476.37 103.108C476.17 103.408 470.27 103.408 463.37 103.308L450.77 103.008L457.37 90.6078L463.87 78.3078L470.37 90.5078C473.97 97.2078 476.67 102.808 476.37 103.108Z" fill="black"/>
<path d="M511.67 97.0078V121.508H515.67H519.67V102.508V83.4078L540.57 102.508C556.37 116.808 562.17 121.508 564.07 121.508H566.67V97.0078V72.5078H563.17H559.67V91.7078L559.57 111.008L557.37 108.408C556.17 107.008 546.77 98.3078 536.47 89.2078C520.97 75.3078 517.27 72.5078 514.77 72.5078H511.67V97.0078Z" fill="black"/>
<path d="M617.67 72.8079C617.67 73.0079 623.87 84.0079 631.47 97.1079L645.27 121.008L649.77 121.308L654.17 121.608L667.17 97.8079C674.37 84.8079 680.37 73.7079 680.47 73.3079C680.67 72.9079 678.17 72.5079 674.97 72.5079H669.17L660.67 88.6079C655.97 97.5079 651.77 105.308 651.17 106.108C650.37 107.108 647.77 103.208 640.57 90.2079L630.97 73.0079L624.27 72.7079C620.67 72.5079 617.67 72.6079 617.67 72.8079Z" fill="black"/>
<path d="M694.67 97.0078V121.508H720.17H745.67V117.008V112.508L725.97 112.308L706.17 112.008L705.87 106.208L705.57 100.508H717.17H728.67V96.0078V91.5078H717.07H705.57L705.87 86.2078L706.17 81.0078L725.97 80.7078L745.67 80.5078V76.5078V72.5078H720.17H694.67V97.0078Z" fill="black"/>
<path d="M770.17 75.0079C767.87 77.2079 767.67 78.2079 767.67 85.9079C767.67 100.908 768.57 101.508 793.97 101.508H810.67V107.008V112.508H793.17H775.67V109.408C775.67 107.008 775.27 106.508 773.97 106.908C772.97 107.108 770.67 107.608 768.97 108.008C765.87 108.608 765.67 109.008 765.67 112.608C765.67 115.508 766.37 117.308 768.17 119.008L770.57 121.508H792.97C820.97 121.508 819.97 122.008 820.57 108.508C820.97 97.7079 819.77 94.1079 815.47 92.6079C813.67 92.0079 804.67 91.5079 795.07 91.5079H777.67V86.0079V80.5079H793.67H809.67V83.5079C809.67 86.9079 809.37 86.8079 815.27 85.4079C819.37 84.3079 819.67 84.1079 819.67 80.8079C819.67 78.5079 818.87 76.6079 817.17 75.0079C814.77 72.5079 814.77 72.5079 793.67 72.5079C772.57 72.5079 772.57 72.5079 770.17 75.0079Z" fill="black"/>
</svg>
